{"title":"Elysium 2013 HDRip x264 AAC - ViZNU [P2PDL]","uid":9022296,"size":424167341,"categoryP":"video","categoryS":"movies","magnet":"?xt=urn:btih:452777bbb98c2125b882bf8aba856baff848d3b7&amp;dn=Elysium+2013+HDRip+x264+AAC+-+ViZNU+%5BP2PDL%5D&amp;tr=udp%3A%2F%2Ftracker.openbittorrent.com%3A80&amp;tr=udp%3A%2F%2Fopen.demonii.com%3A1337&amp;tr=udp%3A%2F%2Ftracker.coppersurfer.tk%3A6969&amp;tr=udp%3A%2F%2Fexodus.desync.com%3A6969","seeders":3,"leechers":0,"uploader":"ValidusVyto","files":-1,"time":1381294422,"description":"_______ Visit us at our Semi Public Bittorrent Community ________\n  &lt;a href=&quot;\nhttp://p2pdl.com&quot; rel=&quot;nofollow&quot; target=&quot;_NEW&quot;&gt;\nhttp://p2pdl.com&lt;/a&gt;  _____________________________ &lt;a href=&quot; http://p2pdl.com&quot; rel=&quot;nofollow&quot; target=&quot;_NEW&quot;&gt; http://p2pdl.com&lt;/a&gt;\n\n\n\nElysium 2013 HDRip x264 AAC - ViZNU\n\n\nGenre: Action | Drama | Sci-Fi\nPlot: Set in the year 2154, where the very wealthy live on a man-made space station\nwhile the rest of the population resides on a ruined Earth, a man takes on a mission\nthat could bring equality to the polarized worlds.\t\t\t\t\t\t\t\t\t\t\t\t\t\t\nDirector: Neill Blomkamp\nStars: Matt Damon, Jodie Foster, Sharlto Copley.\nRated: R for strong bloody violence and language throughout.\n\nIMDb: &lt;a href=&quot;\nhttp://www.imdb.com/title/tt1535108/&quot; rel=&quot;nofollow&quot; target=&quot;_NEW&quot;&gt;\nhttp://www.imdb.com/title/tt1535108/&lt;/a&gt;\n\nTrailer:\n\n\nFormat                         : MPEG-4\nFile size                      : 401 MiB\nDuration                       : 1h 49mn\nOverall bit rate               : 513 Kbps\n\nVideo\nFormat                         : AVC\nBit rate                       : 469 Kbps\nWidth                          : 720 pixels\nHeight                         : 400 pixels\nDisplay aspect ratio           : 16:9\nFrame rate mode                : Constant\nFrame rate                     : 23.528 fps\nBit depth                      : 10 bits\nStream size                    : 367 MiB (91%)\nWriting library                : x264 core 138 r2358\n\nAudio\nFormat                         : AAC\nBit rate mode                  : Variable\nBit rate                       : 40.0 Kbps\nChannel(s)                     : 2 channels\nChannel positions              : Front: L R\nSampling rate                  : 48.0 KHz\nStream size                    : 31.3 MiB (8%)\nLanguage                       : English\n\nNote: Source used was UNiQUE. This one contains hardcoded Korean subs.\n &lt;a href=&quot;\nhttp://ultraimg.com/images/bZRPL.png&quot; rel=&quot;nofollow&quot; target=&quot;_NEW&quot;&gt;\nhttp://ultraimg.com/images/bZRPL.png&lt;/a&gt; &lt;a href=&quot;\nhttp://ultraimg.com/images/UkyER.png&quot; rel=&quot;nofollow&quot; target=&quot;_NEW&quot;&gt;\nhttp://ultraimg.com/images/UkyER.png&lt;/a&gt; &lt;a href=&quot;\nhttp://ultraimg.com/images/ZJE6r.png&quot; rel=&quot;nofollow&quot; target=&quot;_NEW&quot;&gt;\nhttp://ultraimg.com/images/ZJE6r.png&lt;/a&gt; &lt;a href=&quot;\nhttp://ultraimg.com/images/zhFIq.png&quot; rel=&quot;nofollow&quot; target=&quot;_NEW&quot;&gt;\nhttp://ultraimg.com/images/zhFIq.png&lt;/a&gt; &lt;a href=&quot;\nhttp://ultraimg.com/images/tlDA.png&quot; rel=&quot;nofollow&quot; target=&quot;_NEW&quot;&gt;\nhttp://ultraimg.com/images/tlDA.png&lt;/a&gt; &lt;a href=&quot;\nhttp://ultraimg.com/images/2li0u.png&quot; rel=&quot;nofollow&quot; target=&quot;_NEW&quot;&gt;\nhttp://ultraimg.com/images/2li0u.png&lt;/a&gt; &lt;a href=&quot;\nhttp://ultraimg.com/images/ZIvSV.png&quot; rel=&quot;nofollow&quot; target=&quot;_NEW&quot;&gt;\nhttp://ultraimg.com/images/ZIvSV.png&lt;/a&gt;\n\n----------------------------------------------------------------------------------------------------\n\n\nEncoded using revolutionary 10bit encoding, which enables us to provide you more crispier \nand sharper images at small sizes, just make sure you follow our instructions without a fault.\nRecommend to you to use latest version of VLC player. Install K-Lite Codec Pack or shark007 codecs\nin case of any kind of problem in playback (For non-VLC Media Player users). Alternatively, install\nCore AVC codecs, the fastest decoder that there is coupled with Community Center Codec Pack and play\non Windows Media Player Classic. Check sample to be sure.\nEnjoy!\n\nEncoder Notes:Looking For Early Access To Anything You Can Provide DVDScr, R5, DVDR, BluRay, Direct\nAudio, Music Releases and Seedboxes. We require dedicated servers, so as to do more \nand fast releases of movies.\nIf You Got anything to offer please contact us at &quot;&lt;a class=&quot;__cf_email__&quot; href=&quot;/cdn-cgi/l/email-protection&quot; data-cfemail=&quot;cebebca98ea6bbbda6e0ada1a3&quot;&gt;[email&amp;#160;protected]&lt;/a&gt;&lt;script cf-hash='f9e31' type=&quot;text/javascript&quot;&gt;\n/* &lt;![CDATA[ */!function(){try{var t=&quot;currentScript&quot;in document?document.currentScript:function(){for(var t=document.getElementsByTagName(&quot;script&quot;),e=t.length;e--;)if(t[e].getAttribute(&quot;cf-hash&quot;))return t[e]}();if(t&amp;&amp;t.previousSibling){var e,r,n,i,c=t.previousSibling,a=c.getAttribute(&quot;data-cfemail&quot;);if(a){for(e=&quot;&quot;,r=parseInt(a.substr(0,2),16),n=2;a.length-n;n+=2)i=parseInt(a.substr(n,2),16)^r,e+=String.fromCharCode(i);e=document.createTextNode(e),c.parentNode.replaceChild(e,c)}}}catch(u){}}();/* ]]&gt; */&lt;/script&gt;&quot;.\n","torrent":{"xt":"urn:btih:452777bbb98c2125b882bf8aba856baff848d3b7","amp;dn":"Elysium+2013+HDRip+x264+AAC+-+ViZNU+%5BP2PDL%5D","amp;tr":["udp%3A%2F%2Ftracker.openbittorrent.com%3A80","udp%3A%2F%2Fopen.demonii.com%3A1337","udp%3A%2F%2Ftracker.coppersurfer.tk%3A6969","udp%3A%2F%2Fexodus.desync.com%3A6969"],"infoHash":"452777bbb98c2125b882bf8aba856baff848d3b7","infoHashBuffer":{"type":"Buffer","data":[69,39,119,187,185,140,33,37,184,130,191,138,186,133,107,175,248,72,211,183]},"announce":[],"urlList":[]}}